<?xml version="1.0" standalone="no"?>
<!DOCTYPE svg PUBLIC "-//W3C//DTD SVG 20010904//EN"
 "http://www.w3.org/TR/2001/REC-SVG-20010904/DTD/svg10.dtd">
<svg version="1.0" xmlns="http://www.w3.org/2000/svg"
 width="3920.000000pt" height="3920.000000pt" viewBox="0 0 3920.000000 3920.000000"
 preserveAspectRatio="xMidYMid meet">

<g transform="translate(0.000000,3920.000000) scale(0.100000,-0.100000)"
fill="#000000" stroke="none">
<path d="M19433 25927 c5 -12 59 -108 404 -707 330 -571 461 -799 672 -1162
l214 -368 2619 0 2619 0 -17 -32 c-9 -18 -36 -64 -59 -103 -23 -38 -53 -90
-67 -115 -48 -87 -341 -595 -348 -605 -4 -5 -52 -86 -106 -180 -265 -461 -321
-559 -464 -805 -84 -146 -179 -310 -210 -365 -31 -55 -95 -165 -142 -245 -46
-80 -140 -242 -208 -360 -547 -950 -671 -1164 -684 -1172 -6 -4 -1189 -8
-2628 -8 l-2617 0 -7 -22 c-4 -13 -17 -39 -29 -58 -21 -34 -61 -103 -335 -580
-68 -118 -153 -264 -188 -325 -36 -60 -74 -126 -85 -145 -11 -19 -50 -87 -87
-150 -37 -63 -120 -207 -185 -320 -178 -309 -223 -386 -287 -493 -32 -54 -58
-102 -58 -107 0 -4 -7 -13 -15 -20 -8 -7 -15 -16 -15 -21 0 -5 660 -9 1533 -9
l1533 0 30 -52 c97 -166 350 -606 429 -743 145 -253 277 -481 425 -735 75
-129 210 -363 300 -520 90 -157 213 -370 273 -475 61 -104 175 -302 254 -440
234 -404 265 -458 293 -505 47 -78 325 -561 369 -642 l43 -78 1305 0 1305 0
-18 28 c-20 30 -126 209 -187 317 -22 39 -77 133 -122 210 -65 111 -405 700
-485 840 -9 17 -66 116 -127 220 -60 105 -163 282 -228 395 -193 336 -227 395
-296 513 -58 99 -316 545 -642 1112 -60 105 -156 270 -213 367 -57 98 -104
180 -104 183 0 3 489 6 1086 7 l1086 3 93 160 c51 88 168 291 260 450 252 436
431 746 453 785 10 19 77 134 147 255 111 192 401 695 457 795 11 19 60 103
108 185 48 83 174 301 280 485 106 184 201 349 210 365 10 17 49 84 87 150 39
66 130 224 203 350 74 127 168 291 210 365 43 74 110 191 150 260 40 69 130
224 200 345 69 121 158 274 197 340 38 66 104 179 145 250 189 328 276 478
334 578 l62 108 -16 37 c-16 35 -68 126 -194 340 -27 45 -91 156 -142 245
-188 328 -398 692 -561 972 -224 386 -357 620 -366 641 l-9 24 -3921 0 c-3185
0 -3920 -2 -3916 -13z"/>
<path d="M17865 25777 c-33 -55 -72 -121 -86 -146 -14 -25 -95 -165 -179 -311
-84 -146 -185 -321 -225 -390 -74 -130 -292 -507 -412 -715 -217 -375 -358
-619 -546 -945 -115 -201 -284 -493 -375 -650 -327 -566 -721 -1247 -1007
-1745 -239 -415 -509 -881 -638 -1105 -50 -85 -158 -274 -242 -420 -84 -146
-178 -307 -209 -358 -31 -51 -56 -95 -56 -97 0 -2 -14 -28 -31 -57 -17 -29
-82 -141 -144 -248 -370 -643 -496 -862 -695 -1205 -48 -82 -131 -226 -185
-320 -54 -93 -120 -208 -148 -255 -82 -142 -318 -552 -345 -600 -35 -63 -119
-209 -179 -310 -28 -47 -60 -101 -70 -120 -11 -19 -104 -181 -208 -360 -103
-179 -248 -431 -323 -560 -74 -129 -175 -302 -222 -385 -48 -82 -156 -269
-240 -415 -85 -146 -203 -350 -263 -455 -60 -104 -125 -217 -144 -250 -19 -33
-39 -64 -44 -69 -5 -6 -9 -14 -9 -18 0 -4 586 -8 1303 -8 l1303 0 16 33 c13
28 244 431 438 767 36 63 143 248 236 410 401 694 701 1213 764 1320 37 63
130 225 207 360 77 135 191 333 253 440 62 107 124 215 138 240 14 25 45 79
70 120 24 41 129 221 232 400 102 179 231 402 285 495 121 209 202 351 380
660 76 132 176 305 223 385 88 149 363 627 505 875 44 77 88 154 97 170 10 17
83 143 162 280 379 654 527 910 591 1023 38 67 74 122 81 122 6 -1 51 -73 101
-160 l89 -160 1301 -2 c715 -2 1301 -2 1303 -2 2 1 -17 33 -41 70 -25 38 -141
238 -260 444 -118 206 -245 427 -282 490 -90 154 -79 135 -277 480 -97 168
-241 418 -320 555 -79 138 -207 358 -283 490 -76 132 -179 310 -228 395 -185
319 -302 520 -404 700 -58 102 -221 383 -361 625 -141 242 -274 474 -296 516
l-41 77 -60 -101z"/>
</g>
</svg>
